<?xml version="1.0" encoding="UTF-8"?>
<svg width="111px" height="82px" viewBox="0 0 111 82" version="1.1" xmlns="http://www.w3.org/2000/svg" xmlns:xlink="http://www.w3.org/1999/xlink">
    <!-- Generator: Sketch 63.1 (92452) - https://sketch.com -->
    <title>Group 2 Copy 3</title>
    <desc>Created with Sketch.</desc>
    <defs>
        <linearGradient x1="-4.68929028%" y1="73.9849739%" x2="100%" y2="39.6281951%" id="linearGradient-1">
            <stop stop-color="#FFB347" offset="0%"></stop>
            <stop stop-color="#FFCC33" offset="100%"></stop>
        </linearGradient>
        <circle id="path-2" cx="11.5" cy="11.5" r="11.5"></circle>
        <filter x="-30.4%" y="-21.7%" width="160.9%" height="160.9%" filterUnits="objectBoundingBox" id="filter-3">
            <feOffset dx="0" dy="2" in="SourceAlpha" result="shadowOffsetOuter1"></feOffset>
            <feGaussianBlur stdDeviation="2" in="shadowOffsetOuter1" result="shadowBlurOuter1"></feGaussianBlur>
            <feColorMatrix values="0 0 0 0 0   0 0 0 0 0   0 0 0 0 0  0 0 0 0.1 0" type="matrix" in="shadowBlurOuter1"></feColorMatrix>
        </filter>
        <filter x="-30.0%" y="-32.4%" width="160.0%" height="164.9%" filterUnits="objectBoundingBox" id="filter-4">
            <feOffset dx="0" dy="2" in="SourceAlpha" result="shadowOffsetOuter1"></feOffset>
            <feGaussianBlur stdDeviation="2" in="shadowOffsetOuter1" result="shadowBlurOuter1"></feGaussianBlur>
            <feColorMatrix values="0 0 0 0 0   0 0 0 0 0   0 0 0 0 0  0 0 0 0.1 0" type="matrix" in="shadowBlurOuter1" result="shadowMatrixOuter1"></feColorMatrix>
            <feMerge>
                <feMergeNode in="shadowMatrixOuter1"></feMergeNode>
                <feMergeNode in="SourceGraphic"></feMergeNode>
            </feMerge>
        </filter>
        <filter x="-21.8%" y="-23.1%" width="143.6%" height="146.2%" filterUnits="objectBoundingBox" id="filter-5">
            <feOffset dx="0" dy="2" in="SourceAlpha" result="shadowOffsetOuter1"></feOffset>
            <feGaussianBlur stdDeviation="2" in="shadowOffsetOuter1" result="shadowBlurOuter1"></feGaussianBlur>
            <feColorMatrix values="0 0 0 0 0   0 0 0 0 0   0 0 0 0 0  0 0 0 0.1 0" type="matrix" in="shadowBlurOuter1" result="shadowMatrixOuter1"></feColorMatrix>
            <feMerge>
                <feMergeNode in="shadowMatrixOuter1"></feMergeNode>
                <feMergeNode in="SourceGraphic"></feMergeNode>
            </feMerge>
        </filter>
    </defs>
    <g id="Page-1" stroke="none" stroke-width="1" fill="none" fill-rule="evenodd">
        <g id="DASHBOARD---User" transform="translate(-791.000000, -600.000000)">
            <g id="Group-2-Copy-3" transform="translate(782.000000, 563.000000)">
                <g id="Activites-Copy" fill="url(#linearGradient-1)" fill-opacity="0.6" fill-rule="nonzero">
                    <path d="M88.4382331,107.184338 C72.5755752,107.184338 72.3663951,109.832361 51.8451471,109.832361 C40.0654347,109.832361 27.0952107,107.469294 19.9876388,96.9426579 C8.26645722,79.5830568 24.5574204,63.8510565 36.2734105,60.1923935 C45.0130019,57.4631986 50.4663744,58.3451956 52.0728918,48.094512 C53.6794092,37.8438283 67.2530462,20.226462 87.5088754,24.8949118 C97.6370212,27.22919 103.7917,31.6939921 106.002058,44.8982848 C108.212416,58.1025775 107.792258,62.5846911 115.315108,69.2575658 C125.132099,77.9653763 116.399856,104.91094 88.4382331,107.184338 Z" id="Path" transform="translate(67.568395, 66.977790) rotate(44.000000) translate(-67.568395, -66.977790) "></path>
                </g>
                <g id="Player" transform="translate(55.500000, 100.500000) rotate(-19.000000) translate(-55.500000, -100.500000) translate(44.000000, 89.000000)">
                    <g id="Oval">
                        <use fill="black" fill-opacity="1" filter="url(#filter-3)" xlink:href="#path-2"></use>
                        <use fill="#FFFFFF" fill-rule="evenodd" xlink:href="#path-2"></use>
                    </g>
                    <path d="M13.5318108,9.2994206 L18.3576461,14.4964739 C18.7334488,14.9011846 18.7100143,15.5339158 18.3053037,15.9097185 C18.1203382,16.0814722 17.877264,16.176925 17.6248526,16.176925 L7.97318207,16.176925 C7.42089732,16.176925 6.97318207,15.7292098 6.97318207,15.176925 C6.97318207,14.9245136 7.06863496,14.6814394 7.24038858,14.4964739 L12.0662238,9.2994206 C12.4420266,8.89470993 13.0747577,8.87127544 13.4794684,9.24707821 C13.4975559,9.26387371 13.5150153,9.28133313 13.5318108,9.2994206 Z" id="Triangle" fill="#FFCC33" transform="translate(12.799017, 12.343592) rotate(94.000000) translate(-12.799017, -12.343592) "></path>
                </g>
                <g id="Group-11" filter="url(#filter-4)" transform="translate(36.000000, 62.500000) rotate(37.000000) translate(-36.000000, -62.500000) translate(16.000000, 44.000000)">
                    <path d="M32.5769569,0.210432216 C32.2943825,-0.0701440719 31.7940825,-0.0701440719 31.5116817,0.210432216 L21,10.6509915 L27.392172,17 L32.5769569,11.8502956 C35.807681,8.64143063 35.807681,3.41972829 32.5769569,0.210432216" id="Fill-1" fill="#FFFFFF"></path>
                    <g id="Group-7" transform="translate(0.522967, 19.359470)" fill="#FFFFFF">
                        <path d="M8.34097282,12.574271 C6.25043883,12.574271 4.54961359,10.919746 4.54961359,8.886121 C4.54961359,6.852581 6.25043883,5.198056 8.34097282,5.198056 C10.4315942,5.198056 12.132332,6.852496 12.132332,8.886121 C12.132332,10.919746 10.4315068,12.574271 8.34097282,12.574271 L8.34097282,12.574271 Z M17.9613612,6.282741 L11.5274097,0.023936 L10.4778175,1.022261 C10.4724874,1.027446 10.4679437,1.033141 10.462701,1.038496 C9.78499223,0.864926 9.07399223,0.772106 8.34097282,0.772106 C3.7416233,0.772106 -1.74757282e-05,4.411976 -1.74757282e-05,8.886036 C-1.74757282e-05,13.360181 3.74171068,16.999966 8.34097282,16.999966 C12.9403223,16.999966 16.6819631,13.360181 16.6819631,8.886036 C16.6819631,8.404936 16.6384485,7.933526 16.5555262,7.475206 C16.6891282,7.443331 16.8128563,7.377201 16.9117689,7.281066 L17.9613612,6.282741 Z" id="Fill-5"></path>
                    </g>
                    <g id="Group-10" transform="translate(4.000000, -0.000000)" fill="#FFFFFF">
                        <path d="M26.4462327,31.8022329 C24.3046087,31.8022329 22.5621279,30.1105813 22.5621279,28.031323 C22.5621279,25.9521515 24.3046087,24.2604999 26.4462327,24.2604999 C28.5878568,24.2604999 30.3301586,25.9520646 30.3302481,28.031323 C30.3302481,30.1105813 28.5878568,31.8022329 26.4462327,31.8022329 M26.4462327,19.7352341 C25.6050691,19.7352341 24.7921023,19.8543841 24.0238031,20.0753026 C24.0056317,20.053315 23.9865652,20.0318489 23.9658875,20.0117733 L21.8157596,17.9241718 L15.2244808,11.5249229 L3.64243478,0.280154537 C3.33942967,-0.0143744759 2.84692327,-0.0143744759 2.54400767,0.280154537 C0.930248082,1.84692026 0.0415524297,3.93000256 0.0415524297,6.14614001 C0.0415524297,8.36227746 0.930248082,10.4453598 2.54400767,12.0121255 L8.63338107,17.9241718 L15.2245703,24.3233339 L17.3746982,26.4109354 C17.5203376,26.5523337 17.7179847,26.6319408 17.923867,26.6319408 C17.9578824,26.6319408 17.9914501,26.6289859 18.0248389,26.6247275 C17.9440077,27.082034 17.901399,27.551942 17.901399,28.0312361 C17.901399,32.6057783 21.7345703,36.327238 26.4462327,36.327238 C31.1578951,36.327238 34.9910665,32.6057783 34.9910665,28.0312361 C34.9910665,23.4567807 31.1579847,19.7352341 26.4462327,19.7352341" id="Fill-8"></path>
                    </g>
                    <circle id="Oval" fill="#FF8133" cx="20.3009075" cy="18.8993178" r="2"></circle>
                </g>
                <g id="Group-12" filter="url(#filter-5)" transform="translate(61.000000, 41.000000)">
                    <g id="Group-3" fill="#FFFFFF">
                        <path d="M32.6593309,31.7308485 C32.7364526,31.5704706 32.8210309,31.4143639 32.9126396,31.263062 C32.9585504,31.1874645 33.0060591,31.1129347 33.0553787,31.039793 C34.0416635,29.5757848 35.7119243,28.6131975 37.6074787,28.6131975 C46.9646678,28.6131975 52.2999157,17.9023721 46.6802548,10.4041216 C41.9898896,4.14725092 34.54157,0.0597519507 26.096633,0.0083926078 L26.0965265,0.0083926078 C26.0430526,0.007324846 25.9885135,0.007324846 25.9339743,0.007324846 C11.753907,0.007324846 0.232196087,11.4160394 0.00349391304,25.5763762 C-0.228723478,40.0058957 11.1667591,51.7961216 25.5629591,51.9978218 C25.7415961,51.9999995 25.9190613,52.0010251 26.096633,51.9987828 C31.2691157,51.9677109 36.0825135,50.4188156 40.1152135,47.7732222 C41.5086243,46.8588977 42.1342265,45.4696329 42.1342265,44.0953166 C42.1342265,41.8357191 40.4435135,39.6166965 37.7036678,39.6166965 C34.7340548,39.6166965 32.1674135,37.1833741 32.1193722,34.2066678 C32.1193722,34.1765569 32.1182004,34.1466595 32.1182004,34.1165487 C32.1182004,33.2618053 32.3126026,32.4525487 32.6593309,31.7308485" id="Fill-1"></path>
                    </g>
                    <path d="M14.7751185,23.5134896 C14.1420677,21.4779565 12.2433086,20 10,20 L10,20 C7.23790045,20 5,22.2387619 5,25.0004916 C5,27.7613364 7.23790045,30 10,30 C12.7611162,30 15,27.7613364 15,25.0004916 C15,24.4826366 14.9212374,23.9832658 14.7751185,23.5134896" id="Fill-4" fill="#FFCC33"></path>
                    <path d="M18.5004756,35 C16.01487,35 14,37.01487 14,39.5004756 C14,41.98513 16.01487,44 18.5004756,44 C20.98513,44 23,41.98513 23,39.5004756 C23,37.01487 20.9852251,35 18.5004756,35" id="Fill-6" fill="#FFCC33"></path>
                    <path d="M53.9370573,40.9750792 C52.5187919,42.3427493 50.2189709,42.3414176 48.802299,40.9724157 L27,18.6918182 L30.8285731,15 L53.9345076,36.0239718 C55.3540479,37.390003 55.355429,39.6076139 53.9370573,40.9750792" id="Fill-8" fill="#FF8133"></path>
                    <path d="M34.0418875,13.5897295 C32.8140974,12.3619629 29.8197673,11.4565561 26.9913036,10.8416204 C25.1857176,10.4496949 23.4475938,10.1749051 22.2789515,10.0111467 C21.5393937,9.90769273 20.907607,10.5394673 21.0111683,11.2790109 C21.4316227,14.276441 22.5780582,21.0319986 24.5886618,23.0426689 C25.2923309,23.7463246 26.1144009,24.2608583 26.9913036,24.5852177 C29.3644767,25.4622089 32.1357923,24.9487275 34.0418875,23.0426689 C36.6527042,20.4319022 36.6527042,16.1994438 34.0418875,13.5897295" id="Fill-10" fill="#AD3107"></path>
                </g>
            </g>
        </g>
    </g>
</svg>