<?xml version="1.0" encoding="UTF-8"?>
<svg width="107px" height="100px" viewBox="0 0 107 100" version="1.1" xmlns="http://www.w3.org/2000/svg" xmlns:xlink="http://www.w3.org/1999/xlink">
    <!-- Generator: Sketch 63.1 (92452) - https://sketch.com -->
    <title>cooking</title>
    <desc>Created with Sketch.</desc>
    <defs>
        <linearGradient x1="2.04059943%" y1="87.2935963%" x2="97.9594006%" y2="50%" id="linearGradient-1">
            <stop stop-color="#D6AEEF" offset="0%"></stop>
            <stop stop-color="#67BCEF" offset="49.4906039%"></stop>
            <stop stop-color="#2EE4E0" offset="100%"></stop>
        </linearGradient>
        <path d="M72.7227,11.7868 L70.2867,12.3488 L68.4877,4.5548 L70.9237,3.9918 C73.0757,3.4948 75.2237,4.8368 75.7207,6.9898 C76.2177,9.1418 74.8757,11.2898 72.7227,11.7868 L72.7227,11.7868 Z M8.9017,26.5208 L8.7057,26.5608 C6.6197,26.9358 4.5857,25.6108 4.1037,23.5238 C3.6077,21.3708 4.9497,19.2238 7.1017,18.7258 L9.0497,18.2768 L10.8487,26.0718 L8.9017,26.5208 Z M69.5357,0.2068 L6.2017,14.8288 C1.8967,15.8228 -0.7873,20.1188 0.2067,24.4228 C1.2007,28.7278 5.4957,31.4118 9.8017,30.4188 L11.7487,29.9688 L16.2887,49.6258 C17.7077,55.7738 23.7967,59.6168 29.8877,58.2108 L66.6537,49.7228 C72.7447,48.3168 76.5327,42.1928 75.1127,36.0458 L70.5737,16.3888 L73.1357,15.7968 C77.4407,14.8028 80.1247,10.5078 79.1307,6.2028 C78.1367,1.8968 73.8417,-0.7872 69.5357,0.2068 L69.5357,0.2068 Z" id="path-2"></path>
        <filter x="-8.8%" y="-8.5%" width="117.6%" height="123.9%" filterUnits="objectBoundingBox" id="filter-3">
            <feOffset dx="0" dy="2" in="SourceAlpha" result="shadowOffsetOuter1"></feOffset>
            <feGaussianBlur stdDeviation="2" in="shadowOffsetOuter1" result="shadowBlurOuter1"></feGaussianBlur>
            <feColorMatrix values="0 0 0 0 0   0 0 0 0 0   0 0 0 0 0  0 0 0 0.1 0" type="matrix" in="shadowBlurOuter1"></feColorMatrix>
        </filter>
    </defs>
    <g id="Page-1" stroke="none" stroke-width="1" fill="none" fill-rule="evenodd">
        <g id="DASHBOARD---User" transform="translate(-408.000000, -204.000000)">
            <g id="cooking" transform="translate(462.500000, 253.000000) rotate(-13.000000) translate(-462.500000, -253.000000) translate(396.000000, 187.000000)">
                <path d="M84.9212855,17.7108889 C73.4645865,16.4007732 66.4960276,19.6386105 59.1760389,39.4706674 C51.8560501,59.3027242 34.8502561,68.9669358 21.5993206,82.6188999 C8.34838497,96.270864 46.5554149,124.139598 77.0063675,111.044228 C107.45732,97.9488593 112.782896,84.6051811 113.817719,75.1967892 C114.852542,65.7883973 105.437172,58.6141188 105.437172,44.7607983 C105.437172,30.9074778 96.3779845,19.0210046 84.9212855,17.7108889 Z" id="Path" fill-opacity="0.6" fill="url(#linearGradient-1)" fill-rule="nonzero" transform="translate(66.397172, 65.956280) rotate(60.000000) translate(-66.397172, -65.956280) "></path>
                <g id="Group-3" transform="translate(58.742843, 80.811679) rotate(13.000000) translate(-58.742843, -80.811679) translate(18.742843, 51.311679)">
                    <g id="Fill-1">
                        <use fill="black" fill-opacity="1" filter="url(#filter-3)" xlink:href="#path-2"></use>
                        <use fill="#FFFFFF" fill-rule="evenodd" xlink:href="#path-2"></use>
                    </g>
                </g>
                <g id="manche" transform="translate(65.000000, 21.000000)" fill-rule="nonzero">
                    <path d="M16.9328798,0.380786261 C13.6037733,1.28438178 10.8912794,3.71839371 9.61278912,6.94934926 L0.17968254,38.0786261 L16.7630839,38.0786261 L29.6675737,15.8216691 C31.4940261,11.9253481 30.9145457,7.31356638 28.1822335,4.0006236 C25.4499214,0.687680833 21.0611757,-0.724537706 16.9328798,0.380786261 Z M21.1400454,7.90131491 C23.0455329,8.75808399 23.5926531,11.7853348 22.3286168,14.660271 C20.6306576,18.6185442 16.6046077,19.9627197 15.1971882,16.9449886 C13.280381,12.9676761 17.5931973,6.36484235 21.1400454,7.90131491 Z" id="Shape" fill="#80C6E0"></path>
                    <path d="M29.6675737,15.8216691 L16.7630839,38.0786261 L11.10322,38.0786261 L24.0077098,15.8216691 C25.4142229,12.8540435 25.4364639,9.40810206 24.0683765,6.42223822 C22.7002889,3.4363744 20.0843322,1.22150734 16.9328798,0.380786261 C21.0611757,-0.724537706 25.4499214,0.687680833 28.1822335,4.0006236 C30.9145457,7.31356638 31.4940261,11.9253481 29.6675737,15.8216691 Z" id="Shape" fill="#80A0B3"></path>
                </g>
                <g id="Outline" transform="translate(35.000000, 23.000000)" fill="#80A0B3" fill-rule="nonzero">
                    <path d="M2.15396552,8.47692794 C-0.71774569,11.4739424 -0.065,17.0718141 2.32778448,18.9683922 C3.30120046,20.4216181 3.24571134,22.3618056 2.19094828,23.752898 C1.72850495,24.2424528 1.55353934,24.9501582 1.73195933,25.6094282 C1.91037932,26.2686983 2.41507877,26.7793744 3.05594209,26.9490899 C3.6968054,27.1188053 4.37647047,26.9217761 4.83891379,26.4322212 C7.68658621,23.4275516 7.03384052,17.8564731 4.64290517,15.9656364 C3.65406128,14.5122623 3.72443115,12.5544503 4.814875,11.1811306 C9.05494828,6.76216107 5.36961638,-1.64134488 2.39435345,0.643735083 C1.96423047,0.978349102 1.69499247,1.48917381 1.65600062,2.0446099 C1.61700896,2.60004601 1.81207582,3.14578457 2.19094828,3.54123178 C3.31035184,4.9876328 3.29490877,7.04866876 2.15396552,8.47692794 Z" id="Shape"></path>
                    <path d="M11.8563922,8.47692794 C8.99022845,11.468201 9.6263319,17.0565037 12.041306,18.970306 C13.0130491,20.424547 12.9560716,22.3643479 11.9007716,23.7548118 C11.5177886,24.1481529 11.3199006,24.6949967 11.3589987,25.251947 C11.3980967,25.8088972 11.6702806,26.3203935 12.1041767,26.6523085 C12.8592692,27.2227318 13.9059667,27.1252921 14.5505862,26.424566 C17.1375126,23.4175378 17.0512999,18.8560891 14.3527284,15.9560674 C13.3637699,14.5024655 13.4349129,12.5441975 14.5265474,11.1715616 C18.7647716,6.75259206 15.0812888,-1.65091389 12.1041767,0.634166072 C11.6740537,0.96878009 11.4048157,1.4796048 11.3658239,2.03504089 C11.3268322,2.59047699 11.5218991,3.13621556 11.9007716,3.53166277 C13.0245154,4.98112485 13.0059552,7.04931853 11.8563922,8.47692794 L11.8563922,8.47692794 Z" id="Shape"></path>
                    <path d="M21.1020819,8.47692794 C18.2359181,11.468201 18.8720216,17.0565037 21.2869957,18.970306 C22.2587388,20.424547 22.2017613,22.3643479 21.1464612,23.7548118 C20.7634783,24.1481529 20.5655902,24.6949967 20.6046884,25.251947 C20.6437864,25.8088972 20.9159702,26.3203935 21.3498664,26.6523085 C22.1049589,27.2227318 23.1516564,27.1252921 23.7962759,26.424566 C26.3832023,23.4175378 26.2969895,18.8560891 23.5984181,15.9560674 C22.6094596,14.5024655 22.6806026,12.5441975 23.7722371,11.1715616 C28.0067629,6.75641966 24.3380733,-1.65091389 21.3498664,0.634166072 C20.9197434,0.96878009 20.6505054,1.4796048 20.6115136,2.03504089 C20.5725219,2.59047699 20.7675887,3.13621556 21.1464612,3.53166277 C22.2702051,4.98112485 22.2516449,7.04931853 21.1020819,8.47692794 L21.1020819,8.47692794 Z" id="Shape"></path>
                    <path d="M3.48534483,42.3512289 C2.46409424,42.3512289 1.6362069,43.2080674 1.6362069,44.2650312 L1.6362069,46.1788335 C1.6362069,47.2357972 2.46409424,48.0926358 3.48534483,48.0926358 C4.50659542,48.0926358 5.33448276,47.2357972 5.33448276,46.1788335 L5.33448276,44.2650312 C5.33448276,43.2080674 4.50659542,42.3512289 3.48534483,42.3512289 Z" id="Shape"></path>
                    <path d="M3.48534483,51.9202404 C2.46409424,51.9202404 1.6362069,52.777079 1.6362069,53.8340427 L1.6362069,72.9720658 C1.6362069,74.0290296 2.46409424,74.8858681 3.48534483,74.8858681 C4.50659542,74.8858681 5.33448276,74.0290296 5.33448276,72.9720658 L5.33448276,53.8340427 C5.33448276,52.777079 4.50659542,51.9202404 3.48534483,51.9202404 Z" id="Shape"></path>
                </g>
            </g>
        </g>
    </g>
</svg>