<?xml version="1.0" encoding="utf-8"?>
<!-- Generator: Adobe Illustrator 24.0.3, SVG Export Plug-In . SVG Version: 6.00 Build 0)  -->
<svg version="1.1" id="Calque_1" xmlns="http://www.w3.org/2000/svg" xmlns:xlink="http://www.w3.org/1999/xlink" x="0px" y="0px"
	 viewBox="0 0 264.6 48.5" style="enable-background:new 0 0 264.6 48.5;" xml:space="preserve">
<g id="Group-2" transform="translate(52.099190, 9.000000)">
	<path id="CORONAGENDA" d="M-33.5,27.2c1.6,0,3.3-0.4,4.9-1.2c1.6-0.8,3.1-1.8,4.2-3.1l0,0l-4-4.3c-0.7,0.7-1.5,1.3-2.3,1.8
		c-0.9,0.5-1.7,0.7-2.4,0.7c-0.8,0-1.6-0.2-2.2-0.7c-0.7-0.4-1.2-1-1.6-1.8c-0.4-0.8-0.6-1.6-0.6-2.6s0.2-1.8,0.6-2.6
		c0.3-0.7,0.9-1.3,1.5-1.7s1.4-0.6,2.2-0.6s1.7,0.3,2.5,0.8c0.9,0.5,1.6,1.2,2.2,2.1l0,0l4-4.8c-1.1-1.2-2.4-2.1-4.1-2.8
		s-3.2-1.1-4.8-1.1c-2-0.1-4,0.4-5.7,1.3s-3.1,2.2-4.1,3.9s-1.5,3.5-1.5,5.6s0.5,4,1.4,5.7c1,1.7,2.3,3,4,4
		C-37.5,26.7-35.6,27.2-33.5,27.2z M-12.4,27.2c2.2,0,4.2-0.5,5.9-1.4c1.8-1,3.1-2.3,4.1-3.9c1-1.7,1.5-3.6,1.5-5.7s-0.5-4-1.5-5.6
		c-1-1.7-2.4-3-4.1-3.9c-1.8-0.9-3.7-1.4-5.9-1.4s-4.2,0.4-6,1.3s-3.1,2.2-4.1,3.9S-24,14-24,16.1s0.5,4,1.5,5.7s2.4,3,4.1,3.9
		C-16.6,26.7-14.6,27.2-12.4,27.2z M-12.4,21.4c-0.8,0-1.5-0.2-2.2-0.7s-1.2-1.1-1.6-1.9s-0.6-1.7-0.6-2.7s0.2-1.9,0.6-2.6
		c0.4-0.8,1-1.4,1.6-1.8c0.7-0.4,1.4-0.7,2.2-0.7s1.5,0.2,2.2,0.7c0.7,0.4,1.2,1.1,1.6,1.8c0.4,0.8,0.6,1.7,0.6,2.7
		s-0.2,1.9-0.6,2.7c-0.4,0.8-0.9,1.4-1.6,1.9C-10.8,21.2-11.6,21.4-12.4,21.4z M8,26.7v-5.5h2.6l2.5,5.5H21l-4.1-6.8
		c1.1-0.7,1.9-1.6,2.5-2.7s0.9-2.5,0.9-4c0-2.4-0.8-4.3-2.3-5.6c-1.6-1.3-3.8-2-6.6-2l0,0H1.1v21H8V26.7z M11.2,16H8v-5h3.2
		c0.8,0,1.3,0.2,1.8,0.6c0.4,0.4,0.6,1,0.6,1.8s-0.2,1.4-0.6,1.9C12.6,15.7,12,16,11.2,16L11.2,16z M33.3,27.2
		c2.2,0,4.2-0.5,5.9-1.4c1.8-1,3.1-2.3,4.1-3.9s1.5-3.6,1.5-5.7s-0.5-4-1.5-5.6s-2.4-3-4.1-3.9c-1.8-0.9-3.7-1.4-5.9-1.4
		s-4.2,0.5-5.9,1.4c-1.8,0.9-3.1,2.2-4.1,3.9s-1.5,3.5-1.5,5.6s0.5,4,1.5,5.7s2.4,3,4.1,3.9S31.1,27.2,33.3,27.2z M33.4,21.4
		c-0.8,0-1.5-0.2-2.2-0.7s-1.2-1.1-1.7-1.9c-0.4-0.8-0.6-1.7-0.6-2.7s0.2-1.9,0.6-2.6c0.4-0.8,1-1.4,1.7-1.8
		c0.7-0.4,1.4-0.7,2.2-0.7s1.5,0.2,2.2,0.7c0.7,0.4,1.2,1.1,1.6,1.8c0.4,0.8,0.6,1.7,0.6,2.7s-0.2,1.9-0.6,2.7
		c-0.4,0.8-0.9,1.4-1.6,1.9C34.9,21.2,34.2,21.4,33.4,21.4z M53.1,26.7V16l8.3,10.7h5.8v-21h-6.3v10.8L52.6,5.7h-5.8v21H53.1z
		 M75.6,26.7l1.1-3h7.9l1.1,3h7.4l-8.6-21h-7.1l-8.9,21H75.6z M82.8,18.7h-4.4l2.2-6.1L82.8,18.7z M104.9,26.9
		c1.4,0,2.8-0.2,4.1-0.7s2.5-1.2,3.6-2l0,0v-7.7h-1.8v6.7c-0.8,0.6-1.8,1.1-2.7,1.4c-1,0.3-2,0.5-3,0.5c-1.6,0-3.1-0.4-4.5-1.2
		c-1.4-0.8-2.5-1.9-3.3-3.2c-0.8-1.3-1.2-2.8-1.2-4.5c0-1.6,0.4-3.1,1.2-4.4s1.9-2.4,3.2-3.2s2.9-1.2,4.5-1.2c1.2,0,2.4,0.2,3.5,0.6
		s2.1,1,3,1.8l0,0l1.2-1.5c-1-0.9-2.2-1.6-3.5-2.1s-2.7-0.8-4.1-0.8c-2,0-3.8,0.5-5.5,1.4c-1.7,1-3,2.2-4,3.9
		c-1,1.6-1.5,3.4-1.5,5.3s0.5,3.7,1.5,5.4c1,1.6,2.3,2.9,4,3.9C101.1,26.4,102.9,26.9,104.9,26.9z M133.1,26.7v-1.9h-12.4v-7.9h10.7
		V15h-10.7V7.6h12V5.7h-14v21H133.1z M140.2,26.7V8.9l13,17.8h2.2v-21h-2v17.8L140.3,5.7h-2.2v21H140.2z M170.4,26.7
		c2,0,3.9-0.5,5.5-1.4c1.7-0.9,3-2.2,3.9-3.8s1.4-3.4,1.4-5.3s-0.5-3.7-1.4-5.3s-2.2-2.9-3.9-3.8c-1.6-0.9-3.5-1.4-5.5-1.4l0,0H162
		v21H170.4z M170.5,24.8h-6.4V7.6h6.3c1.6,0,3.1,0.4,4.4,1.1c1.3,0.8,2.4,1.8,3.2,3.1s1.2,2.8,1.2,4.4s-0.4,3.1-1.2,4.4
		s-1.8,2.3-3.1,3.1C173.6,24.5,172.1,24.8,170.5,24.8L170.5,24.8z M184.9,26.7l2.5-5.6H199l2.5,5.6h2.2l-9.5-21H192l-9.5,21H184.9z
		 M198.2,19.3h-10l5-11.3L198.2,19.3z"/>
</g>
</svg>
