<?xml version="1.0" encoding="utf-8"?>
<!-- Generator: Adobe Illustrator 24.0.3, SVG Export Plug-In . SVG Version: 6.00 Build 0)  -->
<svg version="1.1" id="Calque_1" xmlns="http://www.w3.org/2000/svg" xmlns:xlink="http://www.w3.org/1999/xlink" x="0px" y="0px"
	 viewBox="0 0 358.2 99.4" style="enable-background:new 0 0 358.2 99.4;" xml:space="preserve">
<style type="text/css">
	.st0{fill:#FF931E;}
	.st1{fill:#009245;}
	.st2{fill:#3FA9F5;}
	.st3{fill:#FF7BAC;}
	.st4{fill:#FDC315;}
	.st5{fill:#FFFFFF;}
	.st6{fill:none;stroke:#000000;stroke-linecap:round;stroke-miterlimit:10;}
</style>
<ellipse class="st0" cx="46.4" cy="54" rx="25" ry="26.5"/>
<g id="Group-2_1_" transform="translate(52.099190, 9.000000)">
	<path id="CORONAGENDA_1_" d="M53.9,33.8c1.6,0,3.3-0.4,4.9-1.2s3.1-1.8,4.2-3.1l0,0l-4-4.3c-0.7,0.7-1.5,1.3-2.3,1.8
		c-0.9,0.5-1.7,0.7-2.4,0.7c-0.8,0-1.6-0.2-2.2-0.7c-0.7-0.4-1.2-1-1.6-1.8c-0.4-0.8-0.6-1.6-0.6-2.6s0.2-1.8,0.6-2.6
		c0.3-0.7,0.9-1.3,1.5-1.7c0.6-0.4,1.4-0.6,2.2-0.6s1.7,0.3,2.5,0.8c0.9,0.5,1.6,1.2,2.2,2.1l0,0l4-4.8c-1.1-1.2-2.4-2.1-4.1-2.8
		s-3.2-1.1-4.8-1.1c-2-0.1-4,0.4-5.7,1.3s-3.1,2.2-4.1,3.9s-1.5,3.5-1.5,5.6s0.5,4,1.4,5.7c1,1.7,2.3,3,4,4
		C49.9,33.3,51.8,33.8,53.9,33.8z M75,33.8c2.2,0,4.2-0.5,5.9-1.4c1.8-1,3.1-2.3,4.1-3.9c1-1.7,1.5-3.6,1.5-5.7s-0.5-4-1.5-5.6
		c-1-1.7-2.4-3-4.1-3.9c-1.8-0.9-3.7-1.4-5.9-1.4c-2.2,0-4.2,0.4-6,1.3c-1.8,0.9-3.1,2.2-4.1,3.9s-1.5,3.5-1.5,5.6s0.5,4,1.5,5.7
		s2.4,3,4.1,3.9C70.8,33.3,72.8,33.8,75,33.8z M75,28c-0.8,0-1.5-0.2-2.2-0.7s-1.2-1.1-1.6-1.9s-0.6-1.7-0.6-2.7s0.2-1.9,0.6-2.6
		c0.4-0.8,1-1.4,1.6-1.8c0.7-0.4,1.4-0.7,2.2-0.7c0.8,0,1.5,0.2,2.2,0.7c0.7,0.4,1.2,1.1,1.6,1.8c0.4,0.8,0.6,1.7,0.6,2.7
		s-0.2,1.9-0.6,2.7c-0.4,0.8-0.9,1.4-1.6,1.9C76.6,27.8,75.8,28,75,28z M95.4,33.3v-5.5H98l2.5,5.5h7.9l-4.1-6.8
		c1.1-0.7,1.9-1.6,2.5-2.7s0.9-2.5,0.9-4c0-2.4-0.8-4.3-2.3-5.6c-1.6-1.3-3.8-2-6.6-2l0,0H88.5v21h6.9V33.3z M98.6,22.6h-3.2v-5h3.2
		c0.8,0,1.3,0.2,1.8,0.6c0.4,0.4,0.6,1,0.6,1.8s-0.2,1.4-0.6,1.9C100,22.3,99.4,22.6,98.6,22.6L98.6,22.6z M120.7,33.8
		c2.2,0,4.2-0.5,5.9-1.4c1.8-1,3.1-2.3,4.1-3.9s1.5-3.6,1.5-5.7s-0.5-4-1.5-5.6s-2.4-3-4.1-3.9c-1.8-0.9-3.7-1.4-5.9-1.4
		c-2.2,0-4.2,0.5-5.9,1.4c-1.8,0.9-3.1,2.2-4.1,3.9s-1.5,3.5-1.5,5.6s0.5,4,1.5,5.7s2.4,3,4.1,3.9C116.5,33.3,118.5,33.8,120.7,33.8
		z M120.8,28c-0.8,0-1.5-0.2-2.2-0.7s-1.2-1.1-1.7-1.9c-0.4-0.8-0.6-1.7-0.6-2.7s0.2-1.9,0.6-2.6c0.4-0.8,1-1.4,1.7-1.8
		s1.4-0.7,2.2-0.7c0.8,0,1.5,0.2,2.2,0.7c0.7,0.4,1.2,1.1,1.6,1.8c0.4,0.8,0.6,1.7,0.6,2.7s-0.2,1.9-0.6,2.7
		c-0.4,0.8-0.9,1.4-1.6,1.9C122.3,27.8,121.6,28,120.8,28z M140.5,33.3V22.6l8.3,10.7h5.8v-21h-6.3v10.8L140,12.3h-5.8v21H140.5z
		 M163,33.3l1.1-3h7.9l1.1,3h7.4l-8.6-21h-7.1l-8.9,21H163z M170.2,25.3h-4.4l2.2-6.1L170.2,25.3z M192.3,33.5
		c1.4,0,2.8-0.2,4.1-0.7s2.5-1.2,3.6-2l0,0v-7.7h-1.8v6.7c-0.8,0.6-1.8,1.1-2.7,1.4c-1,0.3-2,0.5-3,0.5c-1.6,0-3.1-0.4-4.5-1.2
		c-1.4-0.8-2.5-1.9-3.3-3.2c-0.8-1.3-1.2-2.8-1.2-4.5c0-1.6,0.4-3.1,1.2-4.4s1.9-2.4,3.2-3.2s2.9-1.2,4.5-1.2c1.2,0,2.4,0.2,3.5,0.6
		c1.1,0.4,2.1,1,3,1.8l0,0l1.2-1.5c-1-0.9-2.2-1.6-3.5-2.1s-2.7-0.8-4.1-0.8c-2,0-3.8,0.5-5.5,1.4c-1.7,1-3,2.2-4,3.9
		c-1,1.6-1.5,3.4-1.5,5.3s0.5,3.7,1.5,5.4c1,1.6,2.3,2.9,4,3.9C188.5,33,190.3,33.5,192.3,33.5z M220.5,33.3v-1.9h-12.4v-7.9h10.7
		v-1.9h-10.7v-7.4h12v-1.9h-14v21C206.1,33.3,220.5,33.3,220.5,33.3z M227.6,33.3V15.5l13,17.8h2.2v-21h-2v17.8l-13.1-17.8h-2.2v21
		H227.6z M257.8,33.3c2,0,3.9-0.5,5.5-1.4c1.7-0.9,3-2.2,3.9-3.8s1.4-3.4,1.4-5.3s-0.5-3.7-1.4-5.3s-2.2-2.9-3.9-3.8
		c-1.6-0.9-3.5-1.4-5.5-1.4l0,0h-8.4v21H257.8z M257.9,31.4h-6.4V14.2h6.3c1.6,0,3.1,0.4,4.4,1.1c1.3,0.8,2.4,1.8,3.2,3.1
		c0.8,1.3,1.2,2.8,1.2,4.4s-0.4,3.1-1.2,4.4c-0.8,1.3-1.8,2.3-3.1,3.1C261,31.1,259.5,31.4,257.9,31.4L257.9,31.4z M272.3,33.3
		l2.5-5.6h11.6l2.5,5.6h2.2l-9.5-21h-2.2l-9.5,21H272.3z M285.6,25.9h-10l5-11.3L285.6,25.9z"/>
</g>
<path class="st1" d="M98.7,54.7L98.7,54.7c0.8-1,2-1.6,3.6-1.6c1.9,0,3.2,0.7,3.8,2.1c0,0.7,0.1,1.2,0.1,1.6c0,0.5-0.1,1.5-0.2,2.9
	c-0.1,1.5-0.1,2.3-0.1,2.6c0.1,0.2,0.3,0.3,0.5,0.3s0.3-0.1,0.4-0.3c0,0,0-0.1,0-0.3c0-1.1,0.5-2.7,1.3-4.9c1.1-2.5,2.3-4,3.6-4.4
	c2.8-0.2,4.7,0.6,5.7,2.4c0.4,0.6,0.5,1.4,0.5,2.2c0,2.3-0.8,4.7-2.4,7.2c-0.5,0.8-1.4,2.1-2.4,3.7c0.3,0.6,1,1.6,1.8,3.1
	c1.7,3,2.5,5.4,2.5,7.1c0,1.3-0.4,2.5-1.1,3.5c-0.5,0.8-1.5,1.2-2.8,1.3c-1.2,0.1-2.6-1.2-4.3-4c-1.2-2-2-3.7-2.4-5.1
	c-0.1-0.1-0.3-0.2-0.8-0.3l-0.3,0.3c0.3,1.6,0.4,2.9,0.4,3.8c0,1.6-0.3,2.9-0.9,3.8c-1,0.8-2.2,1.1-3.6,1.1c-1.2,0-2.1-0.3-2.9-0.9
	c-1.8-1.4-2.7-5.2-2.6-11.7c0-3.5,0.3-6.9,0.8-10.2C97.4,56.9,98,55.1,98.7,54.7z"/>
<path class="st2" d="M131.1,58.6c0,1,0,2.3,0.1,3.8c0,1.5,0.1,2.4,0.1,2.9c0,4.9-0.3,9.4-1,13.3c-0.5,2.5-1.6,4-3.5,4.5
	c-0.5,0.1-0.9,0.1-1.1,0.1c-2.5,0-4-1.2-4.3-3.5c-0.6-4-0.8-7.6-0.8-10.8c0-3.4,0.3-6.4,0.8-9l1-2.5c1.3-1.9,3.1-2.8,5.5-2.8
	c0.5,0,1,0.1,1.5,0.2c0.7,0.3,1.2,0.9,1.4,1.8L131.1,58.6z"/>
<path class="st0" d="M152.7,66.9c0,3.4-0.8,6.6-2.2,9.3c-1.8,3.4-4.5,5.7-8.1,6.7c-2,0.1-3.7-0.1-5.3-0.7s-2.4-1.4-2.5-2.3
	c-0.4-6.7-0.7-13.1-0.7-19.2c0-2.3,0-3.9,0.2-4.9c0.6-1.4,2.6-2,6-2c1.9,0,3.6,0.2,5.1,0.7c1.6,0.7,3,1.9,4.3,3.6
	C151.6,60.8,152.7,63.8,152.7,66.9z M143.3,63.5c-0.4-0.4-0.7-0.6-1-0.6c-0.2,0-0.3,0.1-0.6,0.1c-0.2,0.1-0.4,0.2-0.4,0.2
	c0.3,1.8,0.5,4.7,0.5,8.8c0.7-0.5,1.3-1.2,1.8-2.2s0.7-2,0.7-3C144.4,65.6,144.1,64.4,143.3,63.5z"/>
<path class="st3" d="M176.1,57l0.1,1.1c0,4.6-3.3,9.7-9.8,15.3c-0.2,0.4-0.1,0.7,0.4,0.8c0.9-0.5,2.4-0.7,4.5-0.7
	c1.2,0,2.2,0.1,2.8,0.3c1.2,0.4,1.8,1.4,1.8,3.1c0,0.4-0.1,0.9-0.2,1.4c-0.6,2.1-1.5,3.4-2.5,3.9c-2.9,0.7-5.7,1.1-8.3,1.1
	c-3,0-5.4-0.5-7.4-1.4c-1.2-0.6-2.1-1.7-2.5-3.5c0.1-2.5,0.6-4.6,1.5-6.4s2.4-3.8,4.6-6c1.9-1.2,3-2.3,3.3-3.3
	c-0.2-0.1-0.5-0.2-0.8-0.2s-0.7,0-1.2,0.1c-0.4,0.1-0.8,0.1-1,0.2c-0.2,0.1-0.7,0.1-1.2,0.1c-1.6,0-2.8-0.7-3.6-2
	c-0.3-0.5-0.4-1.1-0.4-1.9c0-2.1,0.6-3.6,1.8-4.4c1.6-1,4.9-1.5,9.8-1.5c2.4,0,3.8,0.1,4.1,0.3c0.9,0.1,1.8,0.6,2.7,1.3
	C175.3,55.3,175.9,56,176.1,57L176.1,57z"/>
<g>
	<path class="st0" d="M47.6,88.6c0,0-2.3-7,2.5-9.3l-11.5-0.6c0,0,4.9-0.1,5.1,9.7C45.2,88.4,47.6,88.6,47.6,88.6z"/>
	<circle class="st0" cx="45.2" cy="86.6" r="3.6"/>
	<path class="st0" d="M58.9,29.6c-0.9-0.4-1.9-0.8-2.7-1.2c11.6,7.3,16.2,22.2,10.1,34.9C60,75.9,45.4,81.7,32.5,77.1
		c0.8,0.5,1.7,0.9,2.5,1.5c13.5,6.6,29.7,0.9,36.3-12.6S72.4,36.2,58.9,29.6z"/>
	<ellipse transform="matrix(0.4364 -0.8997 0.8997 0.4364 -22.4326 69.6484)" class="st4" cx="44.4" cy="52.7" rx="27" ry="24.1"/>
	<path class="st4" d="M49.2,15.3c0,0,0.8,10.4-5.5,12.9L57,30.4c0,0-5.8-0.4-3.3-14.4C52,15.9,49.2,15.3,49.2,15.3z"/>
	<circle class="st4" cx="51.8" cy="13.9" r="4.1"/>
	<path class="st0" d="M73.6,31.7c0,0-4.8,5.1-8.7,2.9l4.5,8c0,0-2.3-3.2,5.8-8.3C74.5,33.4,73.6,31.7,73.6,31.7z"/>
	<circle class="st0" cx="72.8" cy="34" r="3.6"/>
	<path class="st0" d="M81.1,54.4c0,0-7.2,0.9-8.9-4.2l-1.6,11c0,0,0.2-4.7,10-3.1C80.6,56.7,81.1,54.4,81.1,54.4z"/>
	<circle class="st0" cx="79.4" cy="56.3" r="3.4"/>
	<path class="st0" d="M74.3,75.8c0,0-7.6-3.7-7-10.2l-6.6,10.5c0,0,2.4-4.8,11.4,3.2C72.9,77.8,74.3,75.8,74.3,75.8z"/>
	<circle class="st0" cx="71" cy="76.2" r="4.1"/>
	<path class="st4" d="M23.3,29.3c0,0,6.9,5.5,5,11.3l8.8-7.6c0,0-3.5,3.6-10.9-6.2C25.2,27.8,23.3,29.3,23.3,29.3z"/>
	<circle class="st4" cx="25.4" cy="29.8" r="4.1"/>
	<path class="st4" d="M22.8,78.8c0,0,4.5-6.1,9-4.6l-6-7.7c0,0,2.9,3.1-5,9.7C21.7,77.1,22.8,78.8,22.8,78.8z"/>
	<circle class="st4" cx="22.7" cy="76.5" r="3.4"/>
	<path class="st4" d="M13,55.2c0,0,6.7-2.4,8.9,2.3L22,46.3c0,0,0.3,4.8-8.9,5.2C13.1,53,13,55.2,13,55.2z"/>
	<circle class="st4" cx="14.8" cy="52.5" r="3.4"/>
</g>
<g>
	<circle cx="35.7" cy="44.7" r="8.8"/>
	<circle class="st5" cx="37.8" cy="42.5" r="3.2"/>
</g>
<g>
	<circle cx="57.8" cy="49.4" r="8.8"/>
	<circle class="st5" cx="56" cy="46.9" r="3.2"/>
</g>
<path class="st6" d="M38.8,58.2c0,0,1.5,2.4,5,3.3c3.5,0.9,5.9-0.6,5.9-0.6"/>
<g>
	<path class="st2" d="M38.4,23.2l0.6-2.9c0.5-2.6,3.7-3.7,5.7-1.9l2.2,1.9l2.2,1.9c2,1.8,1.4,5.1-1.2,5.9L45.1,29l-2.7,1
		c-2.5,0.9-5.1-1.4-4.5-4L38.4,23.2z"/>
	<path class="st2" d="M62.4,28l0.6-2.9c0.5-2.6-2-4.9-4.5-4L55.7,22l-2.8,1c-2.5,0.9-3.2,4.2-1.2,5.9l2.2,1.9l2.2,1.9
		c2,1.8,5.2,0.7,5.7-1.9L62.4,28z"/>
	<ellipse transform="matrix(0.1958 -0.9806 0.9806 0.1958 15.5446 69.6525)" class="st2" cx="50.2" cy="25.3" rx="3.7" ry="3.1"/>
	<path class="st5" d="M49.4,29.4c-1.9-0.4-3.1-2.5-2.6-4.7c0.4-2.2,2.4-3.8,4.3-3.4s3.1,2.5,2.6,4.7C53.3,28.2,51.3,29.7,49.4,29.4z
		 M50.9,22.1c-1.5-0.3-2.9,0.9-3.3,2.7c-0.4,1.8,0.5,3.5,2,3.8s2.9-0.9,3.3-2.7C53.2,24,52.4,22.3,50.9,22.1z"/>
</g>
</svg>
