<?xml version="1.0" encoding="utf-8"?>
<!-- Generator: Adobe Illustrator 24.0.3, SVG Export Plug-In . SVG Version: 6.00 Build 0)  -->
<svg version="1.1" id="Calque_1" xmlns="http://www.w3.org/2000/svg" xmlns:xlink="http://www.w3.org/1999/xlink" x="0px" y="0px"
	 viewBox="0 0 301 53" style="enable-background:new 0 0 301 53;" xml:space="preserve">
<style type="text/css">
	.st0{fill:#0FA0A3;}
	.st1{fill:#00BCCA;}
	.st2{fill:#FFFFFF;}
	.st3{opacity:0.65;enable-background:new    ;}
	.st4{fill:#F42716;}
</style>
<title>Artboard</title>
<desc>Created with Sketch.</desc>
<g id="Group-2" transform="translate(52.099190, 9.000000)">
	<path id="CORONAGENDA" d="M11.6,29.5c1.6,0,3.3-0.4,4.9-1.2c1.6-0.8,3.1-1.8,4.2-3.1l0,0l-4-4.3c-0.7,0.7-1.5,1.3-2.3,1.8
		c-0.9,0.5-1.7,0.7-2.4,0.7c-0.8,0-1.6-0.2-2.2-0.7c-0.7-0.4-1.2-1-1.6-1.8c-0.4-0.8-0.6-1.6-0.6-2.6c0-1,0.2-1.8,0.6-2.6
		C8.5,15,9.1,14.4,9.7,14s1.4-0.6,2.2-0.6s1.7,0.3,2.5,0.8c0.9,0.5,1.6,1.2,2.2,2.1l0,0l4-4.8c-1.1-1.2-2.4-2.1-4.1-2.8
		s-3.2-1.1-4.8-1.1C9.7,7.5,7.7,8,6,8.9c-1.7,0.9-3.1,2.2-4.1,3.9s-1.5,3.5-1.5,5.6c0,2.1,0.5,4,1.4,5.7c1,1.7,2.3,3,4,4
		C7.6,29,9.5,29.5,11.6,29.5z M32.7,29.5c2.2,0,4.2-0.5,5.9-1.4c1.8-1,3.1-2.3,4.1-3.9c1-1.7,1.5-3.6,1.5-5.7c0-2.1-0.5-4-1.5-5.6
		c-1-1.7-2.4-3-4.1-3.9c-1.8-0.9-3.7-1.4-5.9-1.4S28.5,8,26.7,8.9s-3.1,2.2-4.1,3.9s-1.5,3.5-1.5,5.6s0.5,4,1.5,5.7s2.4,3,4.1,3.9
		C28.5,29,30.5,29.5,32.7,29.5z M32.7,23.7c-0.8,0-1.5-0.2-2.2-0.7s-1.2-1.1-1.6-1.9s-0.6-1.7-0.6-2.7c0-1,0.2-1.9,0.6-2.6
		c0.4-0.8,1-1.4,1.6-1.8c0.7-0.4,1.4-0.7,2.2-0.7s1.5,0.2,2.2,0.7c0.7,0.4,1.2,1.1,1.6,1.8c0.4,0.8,0.6,1.7,0.6,2.7
		c0,1-0.2,1.9-0.6,2.7c-0.4,0.8-0.9,1.4-1.6,1.9C34.3,23.5,33.5,23.7,32.7,23.7z M53.1,29v-5.5h2.6l2.5,5.5h7.9L62,22.2
		c1.1-0.7,1.9-1.6,2.5-2.7c0.6-1.1,0.9-2.5,0.9-4c0-2.4-0.8-4.3-2.3-5.6c-1.6-1.3-3.8-2-6.6-2l0,0H46.2v21H53.1z M56.3,18.3h-3.2v-5
		h3.2c0.8,0,1.3,0.2,1.8,0.6c0.4,0.4,0.6,1,0.6,1.8c0,0.8-0.2,1.4-0.6,1.9C57.7,18,57.1,18.3,56.3,18.3L56.3,18.3z M78.4,29.5
		c2.2,0,4.2-0.5,5.9-1.4c1.8-1,3.1-2.3,4.1-3.9s1.5-3.6,1.5-5.7c0-2.1-0.5-4-1.5-5.6s-2.4-3-4.1-3.9c-1.8-0.9-3.7-1.4-5.9-1.4
		c-2.2,0-4.2,0.5-5.9,1.4c-1.8,0.9-3.1,2.2-4.1,3.9c-1,1.7-1.5,3.5-1.5,5.6s0.5,4,1.5,5.7c1,1.7,2.4,3,4.1,3.9
		C74.2,29,76.2,29.5,78.4,29.5z M78.5,23.7c-0.8,0-1.5-0.2-2.2-0.7c-0.7-0.5-1.2-1.1-1.7-1.9c-0.4-0.8-0.6-1.7-0.6-2.7
		c0-1,0.2-1.9,0.6-2.6c0.4-0.8,1-1.4,1.7-1.8c0.7-0.4,1.4-0.7,2.2-0.7c0.8,0,1.5,0.2,2.2,0.7c0.7,0.4,1.2,1.1,1.6,1.8
		c0.4,0.8,0.6,1.7,0.6,2.7c0,1-0.2,1.9-0.6,2.7c-0.4,0.8-0.9,1.4-1.6,1.9C80,23.5,79.3,23.7,78.5,23.7z M98.2,29V18.3l8.3,10.7h5.8
		V8H106v10.8L97.7,8h-5.8v21H98.2z M120.7,29l1.1-3h7.9l1.1,3h7.4l-8.6-21h-7.1l-8.9,21H120.7z M127.9,21h-4.4l2.2-6.1L127.9,21z
		 M150,29.2c1.4,0,2.8-0.2,4.1-0.7s2.5-1.2,3.6-2l0,0v-7.7h-1.8v6.7c-0.8,0.6-1.8,1.1-2.7,1.4c-1,0.3-2,0.5-3,0.5
		c-1.6,0-3.1-0.4-4.5-1.2c-1.4-0.8-2.5-1.9-3.3-3.2c-0.8-1.3-1.2-2.8-1.2-4.5c0-1.6,0.4-3.1,1.2-4.4c0.8-1.3,1.9-2.4,3.2-3.2
		s2.9-1.2,4.5-1.2c1.2,0,2.4,0.2,3.5,0.6c1.1,0.4,2.1,1,3,1.8l0,0l1.2-1.5c-1-0.9-2.2-1.6-3.5-2.1s-2.7-0.8-4.1-0.8
		c-2,0-3.8,0.5-5.5,1.4c-1.7,1-3,2.2-4,3.9c-1,1.6-1.5,3.4-1.5,5.3s0.5,3.7,1.5,5.4c1,1.6,2.3,2.9,4,3.9
		C146.2,28.7,148,29.2,150,29.2z M178.2,29v-1.9h-12.4v-7.9h10.7v-1.9h-10.7V9.9h12V8h-14v21H178.2z M185.3,29V11.2l13,17.8h2.2V8
		h-2v17.8L185.4,8h-2.2v21H185.3z M215.5,29c2,0,3.9-0.5,5.5-1.4c1.7-0.9,3-2.2,3.9-3.8s1.4-3.4,1.4-5.3s-0.5-3.7-1.4-5.3
		s-2.2-2.9-3.9-3.8c-1.6-0.9-3.5-1.4-5.5-1.4l0,0h-8.4v21H215.5z M215.6,27.1h-6.4V9.9h6.3c1.6,0,3.1,0.4,4.4,1.1
		c1.3,0.8,2.4,1.8,3.2,3.1s1.2,2.8,1.2,4.4c0,1.6-0.4,3.1-1.2,4.4c-0.8,1.3-1.8,2.3-3.1,3.1C218.7,26.8,217.2,27.1,215.6,27.1
		L215.6,27.1z M230,29l2.5-5.6h11.6l2.5,5.6h2.2l-9.5-21h-2.2l-9.5,21H230z M243.3,21.6h-10l5-11.3L243.3,21.6z"/>
</g>
<g>
	<path class="st0" d="M29.8,13c-0.5-0.2-1.1-0.3-1.6-0.5c7,3.4,10.4,11.6,7.7,19.1c-2.7,7.5-10.6,11.6-18.1,9.7
		c0.5,0.2,1,0.5,1.5,0.7c8,2.9,16.8-1.2,19.7-9.2C41.9,24.7,37.8,15.9,29.8,13z"/>
	<ellipse transform="matrix(0.3411 -0.94 0.94 0.3411 -10.1103 39.3122)" class="st1" cx="23" cy="26.9" rx="15.3" ry="13.7"/>
	<g>
		<circle cx="16" cy="24.2" r="3.3"/>
		<circle class="st2" cx="16.8" cy="23.3" r="1.2"/>
	</g>
	<g>
		<path class="st3" d="M26.9,32c0.3-1.3-0.6-1.5-0.6-1.5L22,30.3l-4.2-0.2c0,0-1,0.1-0.8,1.4c0.1,0.8,0.7,2.5,1.9,3.7
			c0.5-1.1,1.7-1.9,3-1.8c1.3,0.1,2.4,0.9,2.8,2.1C26,34.5,26.7,32.8,26.9,32z"/>
		<path class="st4" d="M21.9,33.5c-1.3-0.1-2.5,0.7-3,1.8c0.7,0.7,1.6,1.2,2.8,1.3c1.2,0.1,2.2-0.4,3-1
			C24.3,34.4,23.2,33.5,21.9,33.5z"/>
	</g>
	<g>
		<circle cx="28.5" cy="24.7" r="3.3"/>
		<circle class="st2" cx="27.8" cy="23.8" r="1.2"/>
	</g>
	<path class="st1" d="M22.1,5.6c0,0,1.4,5.7-1.9,7.7h7.6c0,0-3.3,0.3-3.2-7.7C23.7,5.6,22.1,5.6,22.1,5.6z"/>
	<circle class="st1" cx="23.4" cy="4.6" r="2.3"/>
	<path class="st0" d="M39.1,12.3c0,0-3.2,3.9-6.3,2.7l4,5.3c0,0-1.9-2.1,3.7-6.2C39.9,13.4,39.1,12.3,39.1,12.3z"/>
	<circle class="st0" cx="40.5" cy="12.7" r="2"/>
	<path class="st0" d="M44.8,25.7c0,0-4.7,0.9-6.3-1.8l-0.3,6.3c0,0-0.1-2.7,6.4-2.3C44.7,26.9,44.8,25.7,44.8,25.7z"/>
	<circle class="st0" cx="45.6" cy="26.8" r="1.9"/>
	<path class="st0" d="M43,38.2c0,0-5.6-1.7-5.6-5.5l-3.8,6.5c0,0,1.4-2.9,8.2,1.2C42.2,39.5,43,38.2,43,38.2z"/>
	<circle class="st0" cx="43.2" cy="39.8" r="2.3"/>
	<path class="st0" d="M29.4,47.7c0,0-2.1-4.6,0.3-6.8l-6.4,1.2c0,0,2.7-0.8,3.9,6C28.1,47.9,29.4,47.7,29.4,47.7z"/>
	<circle class="st0" cx="28.5" cy="48.8" r="2"/>
	<path class="st1" d="M8.2,14.1c0,0,5,3,4.1,6.8l5.4-5.4c0,0-2.1,2.5-7.7-3.2C9.4,13.1,8.2,14.1,8.2,14.1z"/>
	<circle class="st1" cx="8.4" cy="12.5" r="2.3"/>
	<path class="st1" d="M11.6,43.6c0,0,2.5-4.1,5.6-3.4l-4.4-4.4c0,0,2.1,1.7-2.6,6.4C10.8,42.6,11.6,43.6,11.6,43.6z"/>
	<circle class="st1" cx="10.3" cy="43.4" r="1.9"/>
	<path class="st1" d="M4.1,30.1c0,0,4.6-1.7,6.6,0.8l-0.8-6.3c0,0,0.6,2.7-6.1,3.4C4,28.8,4.1,30.1,4.1,30.1z"/>
	<circle class="st1" cx="3.1" cy="29.1" r="2"/>
</g>
</svg>
