<?xml version="1.0" encoding="utf-8"?>
<!-- Generator: Adobe Illustrator 24.0.3, SVG Export Plug-In . SVG Version: 6.00 Build 0)  -->
<svg version="1.1" id="Calque_1" xmlns="http://www.w3.org/2000/svg" xmlns:xlink="http://www.w3.org/1999/xlink" x="0px" y="0px"
	 viewBox="0 0 15 20" style="enable-background:new 0 0 15 20;" xml:space="preserve">
<style type="text/css">
	.st0{fill:#FFFFFF;}
</style>
<path class="st0" d="M13.1,7.5h-0.6V5c0-2.8-2.2-5-5-5s-5,2.2-5,5v2.5H1.9C0.8,7.5,0,8.3,0,9.4v8.8c0,1,0.8,1.9,1.9,1.9h11.2
	c1,0,1.9-0.8,1.9-1.9V9.4C15,8.3,14.2,7.5,13.1,7.5z M4.2,5c0-1.8,1.5-3.3,3.3-3.3s3.3,1.5,3.3,3.3v2.5H4.2V5z"/>
</svg>
