<?xml version="1.0" encoding="utf-8"?>
<!-- Generator: Adobe Illustrator 24.0.3, SVG Export Plug-In . SVG Version: 6.00 Build 0)  -->
<svg version="1.1" id="Calque_1" xmlns="http://www.w3.org/2000/svg" xmlns:xlink="http://www.w3.org/1999/xlink" x="0px" y="0px"
	 viewBox="0 0 60 60" style="enable-background:new 0 0 60 60;" xml:space="preserve">
<style type="text/css">
	.st0{fill:#0FA0A3;}
	.st1{fill:#00BCCA;}
	.st2{fill:#FFFFFF;}
	.st3{opacity:0.65;enable-background:new    ;}
	.st4{fill:#F42716;}
	.st5{fill:url(#SVGID_1_);}
	.st6{fill:none;stroke:url(#SVGID_2_);stroke-width:20;stroke-miterlimit:10;}
	.st7{fill:url(#SVGID_3_);}
</style>
<g>
	<path class="st0" d="M33.8,19.1c-0.4-0.1-0.9-0.3-1.3-0.4c5.5,2.7,8.2,9.1,6.1,15c-2.2,5.9-8.4,9.1-14.3,7.7
		c0.4,0.2,0.8,0.3,1.2,0.5c6.3,2.3,13.2-1,15.5-7.3S40.1,21.4,33.8,19.1z"/>
	<ellipse transform="matrix(0.3411 -0.94 0.94 0.3411 -9.4044 46.5209)" class="st1" cx="28.5" cy="30" rx="12" ry="10.8"/>
	<g>
		<circle cx="23" cy="27.9" r="2.6"/>
		<circle class="st2" cx="23.6" cy="27.2" r="0.9"/>
	</g>
	<g>
		<path class="st3" d="M31.5,34c0.3-1-0.5-1.2-0.5-1.2l-3.3-0.1l-3.3-0.1c0,0-0.8,0.1-0.6,1.1c0.1,0.7,0.5,2,1.5,2.9
			c0.4-0.9,1.3-1.5,2.4-1.5c1.1,0.1,1.8,0.7,2.2,1.6C30.8,35.9,31.3,34.6,31.5,34z"/>
		<path class="st4" d="M27.6,35.2c-1.1-0.1-1.9,0.5-2.4,1.5c0.5,0.5,1.3,1,2.2,1c1,0.1,1.7-0.3,2.3-0.8
			C29.5,35.9,28.6,35.2,27.6,35.2z"/>
	</g>
	<g>
		<circle cx="32.8" cy="28.3" r="2.6"/>
		<circle class="st2" cx="32.2" cy="27.6" r="0.9"/>
	</g>
	<path class="st1" d="M27.8,13.2c0,0,1.1,4.5-1.5,6.1h6c0,0-2.6,0.3-2.5-6.1C29,13.3,27.8,13.2,27.8,13.2z"/>
	<circle class="st1" cx="28.8" cy="12.5" r="1.8"/>
	<path class="st0" d="M41.2,18.5c0,0-2.5,3.1-4.9,2.1l3.1,4.2c0,0-1.5-1.6,2.9-4.9C41.8,19.4,41.2,18.5,41.2,18.5z"/>
	<circle class="st0" cx="42.2" cy="18.9" r="1.6"/>
	<path class="st0" d="M45.6,29c0,0-3.7,0.7-4.9-1.5l-0.3,4.9c0,0-0.1-2.1,5.1-1.8C45.4,30.1,45.6,29,45.6,29z"/>
	<circle class="st0" cx="46.2" cy="29.9" r="1.5"/>
	<path class="st0" d="M44.2,38.9c0,0-4.4-1.3-4.4-4.3l-3,5.1c0,0,1.1-2.3,6.4,0.9C43.5,39.9,44.2,38.9,44.2,38.9z"/>
	<circle class="st0" cx="44.4" cy="40.2" r="1.8"/>
	<path class="st0" d="M33.5,46.4c0,0-1.6-3.6,0.3-5.3L28.7,42c0,0,2.1-0.6,3.1,4.7C32.4,46.5,33.5,46.4,33.5,46.4z"/>
	<circle class="st0" cx="32.8" cy="47.2" r="1.6"/>
	<path class="st1" d="M16.9,20c0,0,4,2.4,3.2,5.3l4.2-4.2c0,0-1.6,2-6.1-2.5C17.8,19.1,16.9,20,16.9,20z"/>
	<circle class="st1" cx="17" cy="18.7" r="1.8"/>
	<path class="st1" d="M19.5,43.1c0,0,2-3.2,4.4-2.7l-3.5-3.5c0,0,1.6,1.4-2,5C18.8,42.3,19.5,43.1,19.5,43.1z"/>
	<circle class="st1" cx="18.5" cy="43" r="1.5"/>
	<path class="st1" d="M13.6,32.5c0,0,3.6-1.4,5.1,0.6l-0.6-4.9c0,0,0.5,2.1-4.8,2.7C13.5,31.5,13.6,32.5,13.6,32.5z"/>
	<circle class="st1" cx="12.8" cy="31.7" r="1.5"/>
</g>
<linearGradient id="SVGID_1_" gradientUnits="userSpaceOnUse" x1="-605.6764" y1="-51.427" x2="-170.612" y2="-230.4966">
	<stop  offset="0" style="stop-color:#FEDA75"/>
	<stop  offset="0.1849" style="stop-color:#FA7E1E"/>
	<stop  offset="0.4112" style="stop-color:#D62976"/>
	<stop  offset="0.6695" style="stop-color:#962FBF"/>
	<stop  offset="1" style="stop-color:#4F5BD5"/>
</linearGradient>
<rect x="-540.5" y="-304.8" class="st5" width="321" height="321"/>
<linearGradient id="SVGID_2_" gradientUnits="userSpaceOnUse" x1="-1209.5221" y1="43.7785" x2="-918.3553" y2="-76.0639">
	<stop  offset="0" style="stop-color:#FEDA75"/>
	<stop  offset="0.1849" style="stop-color:#FA7E1E"/>
	<stop  offset="0.4112" style="stop-color:#D62976"/>
	<stop  offset="0.6695" style="stop-color:#962FBF"/>
	<stop  offset="1" style="stop-color:#4F5BD5"/>
</linearGradient>
<circle class="st6" cx="-1063.9" cy="-16.1" r="147.4"/>
<linearGradient id="SVGID_3_" gradientUnits="userSpaceOnUse" x1="2.8462" y1="40.9502" x2="56.0534" y2="19.0504">
	<stop  offset="0" style="stop-color:#FEDA75"/>
	<stop  offset="0.1849" style="stop-color:#FA7E1E"/>
	<stop  offset="0.4112" style="stop-color:#D62976"/>
	<stop  offset="0.6695" style="stop-color:#962FBF"/>
	<stop  offset="1" style="stop-color:#4F5BD5"/>
</linearGradient>
<path class="st7" d="M29.5,58.8C13.6,58.8,0.7,45.9,0.7,30c0-15.9,12.9-28.8,28.8-28.8c15.9,0,28.8,12.9,28.8,28.8
	C58.2,45.9,45.3,58.8,29.5,58.8z M29.5,4.7C15.5,4.7,4.1,16,4.1,30c0,14,11.4,25.3,25.3,25.3c14,0,25.3-11.4,25.3-25.3
	C54.8,16,43.4,4.7,29.5,4.7z"/>
</svg>
