<?xml version="1.0" encoding="utf-8"?>
<!-- Generator: Adobe Illustrator 24.0.3, SVG Export Plug-In . SVG Version: 6.00 Build 0)  -->
<svg version="1.1" id="Calque_1" xmlns="http://www.w3.org/2000/svg" xmlns:xlink="http://www.w3.org/1999/xlink" x="0px" y="0px"
	 viewBox="0 0 60 60" style="enable-background:new 0 0 60 60;" xml:space="preserve">
<style type="text/css">
	.st0{fill:url(#SVGID_1_);}
	.st1{fill:#FF931E;}
	.st2{fill:#FDC315;}
	.st3{fill:#FFFFFF;}
	.st4{fill:none;stroke:#000000;stroke-linecap:round;stroke-miterlimit:10;}
	.st5{fill:#3FA9F5;}
</style>
<linearGradient id="SVGID_1_" gradientUnits="userSpaceOnUse" x1="2.8582" y1="21.0457" x2="56.0654" y2="42.9455" gradientTransform="matrix(1 0 0 -1 0 62)">
	<stop  offset="0" style="stop-color:#FEDA75"/>
	<stop  offset="0.1849" style="stop-color:#FA7E1E"/>
	<stop  offset="0.4112" style="stop-color:#D62976"/>
	<stop  offset="0.6695" style="stop-color:#962FBF"/>
	<stop  offset="1" style="stop-color:#4F5BD5"/>
</linearGradient>
<path class="st0" d="M29.5,58.8C13.6,58.8,0.7,45.9,0.7,30S13.6,1.2,29.5,1.2S58.3,14.1,58.3,30C58.2,45.9,45.3,58.8,29.5,58.8z
	 M29.5,4.7C15.5,4.7,4.1,16,4.1,30s11.4,25.3,25.3,25.3c14,0,25.3-11.4,25.3-25.3C54.8,16,43.4,4.7,29.5,4.7z"/>
<g>
	<ellipse class="st1" cx="28.7" cy="32.1" rx="12.4" ry="13.1"/>
	<g>
		<path class="st1" d="M29.2,49.3c0,0-1.2-3.5,1.2-4.6l-5.7-0.3c0,0,2.4-0.1,2.5,4.8C28.1,49.2,29.2,49.3,29.2,49.3z"/>
		<circle class="st1" cx="28.1" cy="48.3" r="1.8"/>
		<path class="st1" d="M34.8,20.1c-0.4-0.2-0.9-0.4-1.3-0.6c5.7,3.6,8,11,5,17.2c-3.1,6.2-10.3,9.1-16.7,6.8
			c0.4,0.3,0.8,0.5,1.3,0.7c6.7,3.3,14.7,0.4,18-6.2S41.5,23.3,34.8,20.1z"/>
		
			<ellipse transform="matrix(0.4364 -0.8997 0.8997 0.4364 -12.7235 42.6262)" class="st2" cx="27.7" cy="31.5" rx="13.3" ry="11.9"/>
		<path class="st2" d="M30,13c0,0,0.4,5.1-2.7,6.4l6.6,1.1c0,0-2.9-0.2-1.6-7.1C31.4,13.3,30,13,30,13z"/>
		<circle class="st2" cx="31.3" cy="12.3" r="2.1"/>
		<path class="st1" d="M42.1,21.1c0,0-2.4,2.5-4.3,1.4l2.2,4c0,0-1.1-1.6,2.9-4.1C42.5,21.9,42.1,21.1,42.1,21.1z"/>
		<circle class="st1" cx="41.7" cy="22.2" r="1.8"/>
		<path class="st1" d="M45.8,32.3c0,0-3.5,0.4-4.4-2.1l-0.8,5.4c0,0,0.1-2.3,5-1.5C45.5,33.5,45.8,32.3,45.8,32.3z"/>
		<circle class="st1" cx="45" cy="33.3" r="1.7"/>
		<path class="st1" d="M42.4,42.9c0,0-3.8-1.8-3.5-5l-3.3,5.2c0,0,1.2-2.4,5.6,1.6C41.7,43.9,42.4,42.9,42.4,42.9z"/>
		<circle class="st1" cx="40.8" cy="43.1" r="2.1"/>
		<path class="st2" d="M17.2,19.9c0,0,3.4,2.7,2.5,5.6l4.4-3.8c0,0-1.7,1.8-5.4-3.1C18.2,19.2,17.2,19.9,17.2,19.9z"/>
		<circle class="st2" cx="18.3" cy="20.2" r="2.1"/>
		<path class="st2" d="M17,44.4c0,0,2.2-3,4.4-2.3l-3-3.8c0,0,1.4,1.5-2.5,4.8C16.4,43.6,17,44.4,17,44.4z"/>
		<circle class="st2" cx="16.9" cy="43.3" r="1.7"/>
		<path class="st2" d="M12.1,32.7c0,0,3.3-1.2,4.4,1.1l0.1-5.5c0,0,0.2,2.4-4.4,2.6C12.2,31.6,12.1,32.7,12.1,32.7z"/>
		<circle class="st2" cx="13" cy="31.4" r="1.7"/>
	</g>
	<g>
		<circle cx="23.4" cy="27.6" r="4.4"/>
		<circle class="st3" cx="24.4" cy="26.4" r="1.6"/>
	</g>
	<g>
		<circle cx="34.3" cy="29.8" r="4.4"/>
		<circle class="st3" cx="33.4" cy="28.6" r="1.6"/>
	</g>
	<path class="st4" d="M24.9,34.2c0,0,0.7,1.2,2.4,1.6c1.7,0.4,2.9-0.3,2.9-0.3"/>
	<g>
		<path class="st5" d="M24.7,16.9l0.3-1.4c0.3-1.3,1.8-1.8,2.8-1l1.1,1l1.1,1c1,0.9,0.7,2.5-0.6,2.9L28,19.8l-1.4,0.5
			c-1.3,0.4-2.5-0.7-2.2-2L24.7,16.9z"/>
		<path class="st5" d="M36.6,19.3l0.3-1.4c0.3-1.3-1-2.4-2.2-2l-1.4,0.5l-1.4,0.5c-1.3,0.4-1.6,2.1-0.6,2.9l1.1,1l1.1,1
			c1,0.9,2.6,0.3,2.8-1L36.6,19.3z"/>
		<ellipse transform="matrix(0.1958 -0.9806 0.9806 0.1958 7.1271 44.1802)" class="st5" cx="30.5" cy="17.7" rx="1.8" ry="1.5"/>
		<path class="st3" d="M30.1,20c-0.9-0.2-1.5-1.2-1.3-2.4c0.2-1.1,1.2-1.9,2.1-1.7s1.5,1.2,1.3,2.4C32,19.4,31.1,20.1,30.1,20z
			 M30.9,16.3c-0.7-0.1-1.4,0.5-1.6,1.3s0.3,1.7,1,1.9s1.4-0.5,1.6-1.3C32.1,17.4,31.6,16.5,30.9,16.3z"/>
	</g>
</g>
</svg>
